<svg xmlns="http://www.w3.org/2000/svg" width="43.463" height="43.462" viewBox="0 0 43.463 43.462">
  <g id="Grupo_82" data-name="Grupo 82" transform="translate(0.5 0.5)">
    <path id="Trazado_106" data-name="Trazado 106" d="M446.509,6000.792a21.231,21.231,0,1,0-21.232,21.231c.061,0,.121,0,.182,0v-14.811h-5.112v-5.92h5.112v-4.366c0-5.066,3.095-7.825,7.613-7.825a42.088,42.088,0,0,1,4.568.232v5.3h-3.135c-2.459,0-2.934,1.167-2.934,2.882v3.78h5.862l-.763,5.92h-5.1v13.866A21.243,21.243,0,0,0,446.509,6000.792Z" transform="translate(-404.046 -5979.561)" fill="none" stroke="#fff" stroke-miterlimit="10" stroke-width="1"/>
    <path id="Trazado_107" data-name="Trazado 107" d="M436.694,6007.221l.763-5.92H431.6v-3.78c0-1.715.475-2.882,2.934-2.882h3.134v-5.3a42.087,42.087,0,0,0-4.568-.232c-4.519,0-7.613,2.758-7.613,7.825v4.366H420.37v5.92h5.112v14.811a21.234,21.234,0,0,0,6.113-.945v-13.866Z" transform="translate(-404.069 -5979.575)" fill="#fff"/>
  </g>
</svg>
