<svg xmlns="http://www.w3.org/2000/svg" width="43.462" height="43.462" viewBox="0 0 43.462 43.462">
  <g id="Grupo_91" data-name="Grupo 91" transform="translate(0.5 0.5)">
    <g id="Grupo_89" data-name="Grupo 89">
      <path id="Trazado_112" data-name="Trazado 112" d="M602.935,6000.792a21.231,21.231,0,1,1-21.231-21.231A21.231,21.231,0,0,1,602.935,6000.792Z" transform="translate(-560.473 -5979.561)" fill="none" stroke="#fff" stroke-miterlimit="10" stroke-width="1"/>
      <g id="Grupo_88" data-name="Grupo 88" transform="translate(34.805 11.314)">
        <path id="Trazado_113" data-name="Trazado 113" d="M595.327,5990.891Z" transform="translate(-595.327 -5990.891)" fill="#fff"/>
        <path id="Trazado_114" data-name="Trazado 114" d="M595.327,5990.892c.007.139,0,.013,0,0Z" transform="translate(-595.327 -5990.892)" fill="#fff"/>
      </g>
    </g>
    <g id="Grupo_90" data-name="Grupo 90" transform="translate(8.186 12.041)">
      <path id="Trazado_115" data-name="Trazado 115" d="M594.215,5994.49a3.277,3.277,0,0,0-2.307-2.322c-2.034-.548-10.193-.548-10.193-.548s-8.158,0-10.193.548a3.278,3.278,0,0,0-2.307,2.322,36.908,36.908,0,0,0,0,12.64,3.281,3.281,0,0,0,2.307,2.321c2.034.548,10.193.548,10.193.548s8.158,0,10.193-.548a3.281,3.281,0,0,0,2.307-2.321,36.9,36.9,0,0,0,0-12.64Zm-15.167,10.2v-7.758l6.818,3.879Z" transform="translate(-568.671 -5991.62)" fill="#fff"/>
    </g>
  </g>
</svg>
