<svg xmlns="http://www.w3.org/2000/svg" width="43.344" height="43.597" viewBox="0 0 43.344 43.597">
  <g id="Grupo_87" data-name="Grupo 87" transform="translate(0.5 0.5)">
    <g id="Grupo_84" data-name="Grupo 84">
      <g id="Grupo_83" data-name="Grupo 83">
        <path id="Trazado_108" data-name="Trazado 108" d="M478.8,6021.963a21.078,21.078,0,0,1-10.56-2.842l-8.248,2.842,1.7-8.735a20.924,20.924,0,0,1-4.059-12.436,21.172,21.172,0,1,1,21.172,21.171Z" transform="translate(-457.626 -5979.621)" fill="none" stroke="#fff" stroke-miterlimit="10" stroke-width="1"/>
      </g>
    </g>
    <g id="Grupo_86" data-name="Grupo 86" transform="translate(7.341 7.34)">
      <g id="Grupo_85" data-name="Grupo 85">
        <path id="Trazado_109" data-name="Trazado 109" d="M478.81,5988a12.79,12.79,0,0,0-10.083,20.674l-.856,4.407,4.158-1.433A12.8,12.8,0,1,0,478.81,5988Z" transform="translate(-464.978 -5986.973)" fill="none"/>
        <path id="Trazado_110" data-name="Trazado 110" d="M478.808,6014.634a13.774,13.774,0,0,1-6.9-1.857l-5.389,1.857,1.107-5.707a13.676,13.676,0,0,1-2.651-8.125,13.831,13.831,0,1,1,13.831,13.832Zm-6.65-4.119.416.261a11.786,11.786,0,1,0-3.04-2.736l.29.369-.605,3.119Z" transform="translate(-464.977 -5986.971)" fill="#fff"/>
      </g>
      <path id="Trazado_111" data-name="Trazado 111" d="M471.834,5995.5s.813-1.417,1.474-1.5,1.513-.083,1.743.35,1.256,2.946,1.256,2.946a.986.986,0,0,1-.094.852,8.515,8.515,0,0,1-.878,1.027.749.749,0,0,0,0,.892,16.206,16.206,0,0,0,1.945,2.385,10.587,10.587,0,0,0,3.162,1.856.63.63,0,0,0,.486-.148c.189-.189,1.216-1.472,1.216-1.472a.721.721,0,0,1,.878-.176c.547.25,2.918,1.432,2.918,1.432a.514.514,0,0,1,.278.521,3.34,3.34,0,0,1-.516,1.789,4.125,4.125,0,0,1-2.882,1.415,12.722,12.722,0,0,1-7.08-3.17c-1.932-1.933-3.648-3.892-4.053-5.675S471.336,5996.233,471.834,5995.5Z" transform="translate(-464.986 -5986.981)" fill="#fff"/>
    </g>
  </g>
</svg>
