<svg xmlns="http://www.w3.org/2000/svg" width="43.463" height="43.462" viewBox="0 0 43.463 43.462">
  <g id="Grupo_97" data-name="Grupo 97" transform="translate(0.5 0.5)">
    <g id="Grupo_93" data-name="Grupo 93">
      <path id="Trazado_116" data-name="Trazado 116" d="M552.384,6000.792a21.231,21.231,0,1,1-21.232-21.231A21.232,21.232,0,0,1,552.384,6000.792Z" transform="translate(-509.921 -5979.561)" fill="none" stroke="#fff" stroke-miterlimit="10" stroke-width="1"/>
      <g id="Grupo_92" data-name="Grupo 92" transform="translate(34.805 11.314)">
        <path id="Trazado_117" data-name="Trazado 117" d="M544.775,5990.891Z" transform="translate(-544.775 -5990.891)" fill="#fff"/>
        <path id="Trazado_118" data-name="Trazado 118" d="M544.775,5990.892c.007.139,0,.013,0,0Z" transform="translate(-544.775 -5990.892)" fill="#fff"/>
      </g>
    </g>
    <g id="Grupo_96" data-name="Grupo 96" transform="translate(12.705 10.34)">
      <g id="Grupo_95" data-name="Grupo 95">
        <g id="Grupo_94" data-name="Grupo 94">
          <rect id="Rectángulo_47" data-name="Rectángulo 47" width="3.933" height="12.706" transform="translate(0.378 6.353)" fill="#fff"/>
          <path id="Trazado_119" data-name="Trazado 119" d="M524.97,5994.6a2.345,2.345,0,1,0-2.326-2.346A2.337,2.337,0,0,0,524.97,5994.6Z" transform="translate(-522.644 -5989.916)" fill="#fff"/>
        </g>
        <path id="Trazado_120" data-name="Trazado 120" d="M533.252,6002.313c0-1.785.822-2.85,2.4-2.85,1.446,0,2.141,1.022,2.141,2.85v6.67H541.7v-8.044c0-3.4-1.929-5.049-4.623-5.049a4.429,4.429,0,0,0-3.829,2.1v-1.712h-3.773v12.706h3.773Z" transform="translate(-522.654 -5989.924)" fill="#fff"/>
      </g>
    </g>
  </g>
</svg>
