<svg xmlns="http://www.w3.org/2000/svg" width="42.088" height="42.088" viewBox="0 0 42.088 42.088">
  <g id="Grupo_104" data-name="Grupo 104" transform="translate(0)">
    <g id="Grupo_99" data-name="Grupo 99" transform="translate(7.975 7.088)">
      <g id="Grupo_98" data-name="Grupo 98">
        <path id="Trazado_121" data-name="Trazado 121" d="M627.463,5990.391H624.8a.664.664,0,0,0,0,1.329h1.916a2.88,2.88,0,1,1-.9-2.825.665.665,0,1,0,.879-1,4.209,4.209,0,1,0,1.426,3.157A.664.664,0,0,0,627.463,5990.391Z" transform="translate(-619.71 -5986.846)" fill="#fff"/>
      </g>
    </g>
    <g id="Grupo_101" data-name="Grupo 101" transform="translate(27.468 3.544)">
      <g id="Grupo_100" data-name="Grupo 100">
        <path id="Trazado_122" data-name="Trazado 122" d="M643.44,5983.3a4.209,4.209,0,1,0,4.209,4.209A4.214,4.214,0,0,0,643.44,5983.3Zm0,7.089a2.88,2.88,0,1,1,2.88-2.88A2.883,2.883,0,0,1,643.44,5990.386Z" transform="translate(-639.231 -5983.297)" fill="#fff"/>
      </g>
    </g>
    <g id="Grupo_103" data-name="Grupo 103">
      <g id="Grupo_102" data-name="Grupo 102">
        <path id="Trazado_123" data-name="Trazado 123" d="M651.415,5991.031a7.121,7.121,0,0,0,.626-2.644,8.636,8.636,0,0,0-12.737-7.6,21.041,21.041,0,1,0,12.111,10.247Zm-8.014-9.954a7.318,7.318,0,0,1,7.311,7.31c0,3.162-4.9,8.936-7.311,11.454-2.41-2.517-7.31-8.289-7.31-11.454A7.318,7.318,0,0,1,643.4,5981.077Zm-30.348,19.715a19.733,19.733,0,0,1,24.828-19.046,8.626,8.626,0,0,0-3.119,6.641,6.97,6.97,0,0,0,.577,2.524l-21.619,14.967A19.649,19.649,0,0,1,613.053,6000.792Zm19.715,19.715a19.716,19.716,0,0,1-16.594-9.082l5.734-4.19a.658.658,0,0,0,.077-1l-.009-.009a.66.66,0,0,0-.854-.066l-5.631,4.115a19.606,19.606,0,0,1-1.363-3.065l21.777-15.075a23.41,23.41,0,0,0,1.339,2.245l-13.488,9.856a.658.658,0,0,0-.077,1l.009.009a.661.661,0,0,0,.854.067l2.66-1.945,11.385,16.265A19.665,19.665,0,0,1,632.768,6020.507Zm7.123-1.333-11.616-16.593,2.5-1.829,11.938,17.054A19.484,19.484,0,0,1,639.891,6019.174Zm3.949-2.079-11.989-17.127,6.151-4.5a54.45,54.45,0,0,0,4.928,5.789.668.668,0,0,0,.942,0,46.889,46.889,0,0,0,6.807-8.716,19.716,19.716,0,0,1-6.839,24.55Z" transform="translate(-611.724 -5979.748)" fill="#fff"/>
      </g>
    </g>
  </g>
</svg>
