<svg xmlns="http://www.w3.org/2000/svg" width="183" height="66.157" viewBox="0 0 183 66.157">
  <g id="Grupo_81" data-name="Grupo 81" transform="translate(0 0)">
    <text id="impact_mobile" data-name="impact mobile" transform="translate(0 59.158)" fill="#fff" font-size="26" font-family="TypoHoopDemo, Typo Hoop Demo"><tspan x="0" y="0">impact mobile</tspan></text>
    <path id="Trazado_103" data-name="Trazado 103" d="M965.1,6122.264a1.2,1.2,0,0,1-1.2-1.331l.485-4.544a17.811,17.811,0,1,1,10,2.281l-8.844,3.51A1.193,1.193,0,0,1,965.1,6122.264Zm8.082-36.768a15.4,15.4,0,0,0-6.966,29.144,1.2,1.2,0,0,1,.652,1.2l-.36,3.367,7.17-2.846a1.234,1.234,0,0,1,.376-.083,15.4,15.4,0,0,0-.872-30.783Z" transform="translate(-864.544 -6083.089)" fill="#fff"/>
    <g id="Grupo_80" data-name="Grupo 80" transform="translate(106.901 16.109)">
      <circle id="Elipse_24" data-name="Elipse 24" cx="1.012" cy="1.012" r="1.012" transform="translate(0.722 0.721)" fill="#fff"/>
      <path id="Trazado_104" data-name="Trazado 104" d="M973.2,6102.688a1.733,1.733,0,1,1,1.734-1.733A1.736,1.736,0,0,1,973.2,6102.688Zm0-2.023a.29.29,0,1,0,.29.29A.291.291,0,0,0,973.2,6100.665Z" transform="translate(-971.468 -6099.221)" fill="#fff"/>
    </g>
    <path id="Trazado_105" data-name="Trazado 105" d="M981.966,6101.058a1.2,1.2,0,0,1-1.158-.882,9.061,9.061,0,0,0-6.875-6.415,1.2,1.2,0,1,1,.478-2.359,11.486,11.486,0,0,1,8.716,8.132,1.2,1.2,0,0,1-.839,1.48A1.181,1.181,0,0,1,981.966,6101.058Z" transform="translate(-864.569 -6083.101)" fill="#fff"/>
  </g>
</svg>
